<?xml version="1.0" encoding="iso-8859-1"?>
<!-- Generator: Adobe Illustrator 19.0.0, SVG Export Plug-In . SVG Version: 6.00 Build 0)  -->
<svg version="1.1" id="Layer_1" xmlns="http://www.w3.org/2000/svg" xmlns:xlink="http://www.w3.org/1999/xlink" x="0px" y="0px"
	 viewBox="0 0 500 500" style="enable-background:new 0 0 500 500;" xml:space="preserve">
<polygon style="fill:#F7F23E;" points="250.4,444.8 0,500 55.2,249.6 250.4,249.6 "/>
<polygon style="fill:#F9D93D;" points="250.4,444.8 0,500 86.4,253.6 250.4,245.6 "/>
<polyline style="fill:#E2B947;" points="250.4,249.6 250.4,444.8 0,500 "/>
<polygon style="fill:#65CE21;" points="498.4,198.4 498.4,1.6 301.6,1.6 299.2,0 52.8,246.4 252.8,447.2 500,200.8 "/>
<polygon style="fill:#0A597C;" points="85.6,414.4 24.8,388.8 0,500 111.2,475.2 "/>
<polygon style="fill:#4EAF0E;" points="498.4,198.4 498.4,1.6 351.2,1.6 80,273.6 252.8,447.2 500,200.8 "/>
<polygon style="fill:#3F9109;" points="412,1.6 110.4,304 196,389.6 498.4,88 498.4,1.6 "/>
<polyline style="fill:#022B3A;" points="0,500 111.2,475.2 85.6,414.4 "/>
<g>
</g>
<g>
</g>
<g>
</g>
<g>
</g>
<g>
</g>
<g>
</g>
<g>
</g>
<g>
</g>
<g>
</g>
<g>
</g>
<g>
</g>
<g>
</g>
<g>
</g>
<g>
</g>
<g>
</g>
</svg>
